<svg width="120" height="66" viewBox="0 0 120 66" fill="none" xmlns="http://www.w3.org/2000/svg">
<path d="M87.769 33.4369C87.769 48.5569 75.4948 60.7789 60.3103 60.7789C45.1257 60.7789 32.8516 48.4939 32.8516 33.4369C32.8516 18.3799 45.1257 6.09497 60.3103 6.09497C75.4948 6.09497 87.769 18.3169 87.769 33.4369Z" stroke="#F0F0F0" stroke-width="2" stroke-linecap="round" stroke-linejoin="round"/>
<path d="M48.3549 58.007L41.332 64.9999" stroke="#F0F0F0" stroke-width="2" stroke-linecap="round" stroke-linejoin="round"/>
<path d="M73.2812 58.007L80.3041 64.9999" stroke="#F0F0F0" stroke-width="2" stroke-linecap="round" stroke-linejoin="round"/>
<path d="M52.6562 26.1919L60.3118 33.4369L74.2942 20.0809" stroke="#F0F0F0" stroke-width="2" stroke-linecap="round" stroke-linejoin="round"/>
<path d="M55.8203 6.47299V2H64.8678V6.09499" stroke="#F0F0F0" stroke-width="2" stroke-linecap="round" stroke-linejoin="round"/>
<path d="M91.3766 14.537C93.0215 16.175 93.0215 18.821 91.3766 20.459C89.7316 22.097 87.0743 22.097 85.4293 20.459L74.4837 9.56003C72.8388 7.92204 72.8388 5.27604 74.4837 3.63804C76.1287 2.00005 78.786 2.00005 80.431 3.63804L91.3766 14.537Z" stroke="#F0F0F0" stroke-width="2" stroke-linecap="round" stroke-linejoin="round"/>
<path d="M28.2337 14.537C26.5888 16.175 26.5888 18.821 28.2337 20.459C29.8787 22.097 32.536 22.097 34.181 20.459L45.1266 9.56003C46.7715 7.92204 46.7715 5.27604 45.1266 3.63804C43.4816 2.00005 40.8243 2.00005 39.1793 3.63804L28.2337 14.537Z" stroke="#F0F0F0" stroke-width="2" stroke-linecap="round" stroke-linejoin="round"/>
</svg>
