<svg width="60" height="60" viewBox="0 0 60 60" fill="none" xmlns="http://www.w3.org/2000/svg">
<rect width="60" height="60" rx="30" fill="#EDEDED"/>
<path d="M35.4716 29.7954C35.4716 32.5404 33.247 34.7548 30.5122 34.7548C27.7773 34.7548 25.5527 32.5302 25.5527 29.7954C25.5527 27.0605 27.7773 24.8359 30.5122 24.8359C33.247 24.8359 35.4716 27.0503 35.4716 29.7954Z" fill="#666666"/>
<path d="M50.6862 29.3062C45.3084 22.214 38.155 18.3057 30.5118 18.3057C22.8685 18.3057 15.7151 22.214 10.3373 29.3062C10.1128 29.5919 10.1128 30.0001 10.3373 30.2858C15.7151 37.378 22.8685 41.2864 30.5118 41.2864C38.155 41.2864 45.3084 37.378 50.6862 30.2858C50.9005 30.0001 50.9005 29.5919 50.6862 29.3062ZM30.5118 38.6332C25.634 38.6332 21.6746 34.6636 21.6746 29.796C21.6746 24.9284 25.6442 20.9589 30.5118 20.9589C35.3895 20.9589 39.3489 24.9284 39.3489 29.796C39.3489 34.6738 35.3895 38.6332 30.5118 38.6332Z" fill="#666666"/>
</svg>
